<svg xmlns="http://www.w3.org/2000/svg" viewBox="0 0 40 205"><polygon points="30 10 30 5 30 0 25 0 25 5 25 10 25 15 25 20 30 20 30 15 30 10" style="fill:#7ffff6"/><polygon points="35 20 30 20 30 25 35 25 35 30 35 35 35 40 35 45 35 50 35 55 40 55 40 50 40 45 40 40 40 35 40 30 40 25 40 20 35 20" style="fill:#7ffff6"/><polygon points="30 60 30 65 35 65 35 60 35 55 30 55 30 60" style="fill:#7ffff6"/><polygon points="25 70 25 75 25 80 25 85 30 85 30 80 30 75 30 70 30 65 25 65 25 70" style="fill:#7ffff6"/><polygon points="30 95 30 100 30 105 35 105 35 100 35 95 35 90 35 85 30 85 30 90 30 95" style="fill:#7ffff6"/><polygon points="35 115 40 115 40 110 40 105 35 105 35 110 35 115" style="fill:#7ffff6"/><rect x="30" y="115" width="5" height="5" style="fill:#7ffff6"/><rect x="35" y="120" width="5" height="5" style="fill:#7ffff6"/><polygon points="25 125 20 125 20 130 25 130 30 130 35 130 35 125 30 125 25 125" style="fill:#7ffff6"/><polygon points="15 135 15 140 20 140 20 135 20 130 15 130 15 135" style="fill:#7ffff6"/><polygon points="10 145 10 150 15 150 15 145 15 140 10 140 10 145" style="fill:#7ffff6"/><polygon points="5 155 5 160 5 165 10 165 10 160 10 155 10 150 5 150 5 155" style="fill:#7ffff6"/><polygon points="0 170 0 175 5 175 5 170 5 165 0 165 0 170" style="fill:#7ffff6"/><polygon points="5 185 10 185 10 180 10 175 5 175 5 180 5 185" style="fill:#7ffff6"/><polygon points="10 195 10 200 10 205 15 205 15 200 15 195 15 190 15 185 10 185 10 190 10 195" style="fill:#7ffff6"/></svg>