<svg xmlns="http://www.w3.org/2000/svg" viewBox="0 0 90 195"><polygon points="50 15 50 10 50 5 50 0 45 0 45 5 45 10 45 15 45 20 50 20 50 15" style="fill:#fcffd4"/><polygon points="45 20 40 20 40 25 40 30 45 30 45 25 45 20" style="fill:#fcffd4"/><rect x="45" y="30" width="5" height="5" style="fill:#fcffd4"/><rect x="40" y="35" width="5" height="5" style="fill:#fcffd4"/><rect x="45" y="40" width="5" height="5" style="fill:#fcffd4"/><polygon points="55 60 55 55 55 50 55 45 50 45 50 50 50 55 50 60 50 65 55 65 55 60" style="fill:#fcffd4"/><polygon points="50 75 50 70 50 65 45 65 45 70 45 75 45 80 45 85 50 85 50 80 50 75" style="fill:#fcffd4"/><polygon points="55 95 55 90 55 85 50 85 50 90 50 95 50 100 50 105 55 105 55 100 55 95" style="fill:#fcffd4"/><polygon points="55 110 55 115 55 120 55 125 60 125 60 120 60 115 60 110 60 105 55 105 55 110" style="fill:#fcffd4"/><polygon points="65 100 60 100 60 105 65 105 70 105 70 100 65 100" style="fill:#fcffd4"/><polygon points="75 105 70 105 70 110 75 110 80 110 80 105 75 105" style="fill:#fcffd4"/><rect x="80" y="110" width="5" height="5" style="fill:#fcffd4"/><rect x="85" y="115" width="5" height="5" style="fill:#fcffd4"/><polygon points="55 140 60 140 60 135 60 130 55 130 55 135 55 140" style="fill:#fcffd4"/><polygon points="50 145 50 150 55 150 55 145 55 140 50 140 50 145" style="fill:#fcffd4"/><polygon points="55 160 60 160 60 155 60 150 55 150 55 155 55 160" style="fill:#fcffd4"/><polygon points="60 170 60 175 60 180 65 180 65 175 65 170 65 165 65 160 60 160 60 165 60 170" style="fill:#fcffd4"/><polygon points="55 185 55 190 60 190 60 185 60 180 55 180 55 185" style="fill:#fcffd4"/><polygon points="45 125 40 125 40 130 45 130 50 130 55 130 55 125 50 125 45 125" style="fill:#fcffd4"/><polygon points="35 135 35 140 40 140 40 135 40 130 35 130 35 135" style="fill:#fcffd4"/><polygon points="30 145 30 150 35 150 35 145 35 140 30 140 30 145" style="fill:#fcffd4"/><polygon points="25 155 25 160 25 165 30 165 30 160 30 155 30 150 25 150 25 155" style="fill:#fcffd4"/><polygon points="20 170 20 175 25 175 25 170 25 165 20 165 20 170" style="fill:#fcffd4"/><polygon points="15 180 15 185 20 185 20 180 20 175 15 175 15 180" style="fill:#fcffd4"/><rect x="10" y="185" width="5" height="5" style="fill:#fcffd4"/><polygon points="0 190 0 195 5 195 10 195 10 190 5 190 0 190" style="fill:#fcffd4"/></svg>