<svg xmlns="http://www.w3.org/2000/svg" viewBox="0 0 70 205"><polygon points="45 15 45 10 45 5 45 0 40 0 40 5 40 10 40 15 40 20 45 20 45 15" style="fill:#bffff5"/><polygon points="40 25 40 20 35 20 30 20 30 25 35 25 40 25" style="fill:#bffff5"/><polygon points="30 35 30 30 30 25 25 25 25 30 25 35 25 40 25 45 30 45 30 40 30 35" style="fill:#bffff5"/><polygon points="35 45 30 45 30 50 30 55 35 55 35 50 35 45" style="fill:#bffff5"/><polygon points="40 55 35 55 35 60 35 65 40 65 40 60 40 55" style="fill:#bffff5"/><polygon points="45 80 45 75 45 70 45 65 40 65 40 70 40 75 40 80 40 85 45 85 45 80" style="fill:#bffff5"/><polygon points="40 100 40 95 40 90 40 85 35 85 35 90 35 95 35 100 35 105 40 105 40 100" style="fill:#bffff5"/><polygon points="35 110 35 105 30 105 30 110 30 115 35 115 35 110" style="fill:#bffff5"/><rect x="25" y="115" width="5" height="5" style="fill:#bffff5"/><polygon points="25 130 25 135 30 135 30 130 30 125 25 125 25 130" style="fill:#bffff5"/><rect x="20" y="135" width="5" height="5" style="fill:#bffff5"/><polygon points="10 140 10 145 15 145 20 145 20 140 15 140 10 140" style="fill:#bffff5"/><polygon points="0 145 0 150 5 150 10 150 10 145 5 145 0 145" style="fill:#bffff5"/><rect x="30" y="120" width="5" height="5" style="fill:#bffff5"/><polygon points="45 125 40 125 35 125 35 130 40 130 45 130 50 130 50 125 45 125" style="fill:#bffff5"/><polygon points="55 130 50 130 50 135 50 140 55 140 55 135 55 130" style="fill:#bffff5"/><polygon points="60 140 55 140 55 145 55 150 60 150 60 145 60 140" style="fill:#bffff5"/><polygon points="65 155 65 150 60 150 60 155 60 160 60 165 65 165 65 160 65 155" style="fill:#bffff5"/><polygon points="65 165 65 170 65 175 70 175 70 170 70 165 65 165" style="fill:#bffff5"/><polygon points="60 180 60 185 65 185 65 180 65 175 60 175 60 180" style="fill:#bffff5"/><polygon points="55 190 55 195 55 200 55 205 60 205 60 200 60 195 60 190 60 185 55 185 55 190" style="fill:#bffff5"/></svg>