<svg xmlns="http://www.w3.org/2000/svg" viewBox="0 0 245.77 426"><polygon points="229.38 327.69 229.38 311.31 229.38 294.92 229.38 278.54 213 278.54 213 262.15 213 245.77 196.62 245.77 196.62 229.38 180.23 229.38 180.23 213 163.85 213 163.85 196.62 163.85 180.23 147.46 180.23 147.46 163.85 114.69 163.85 114.69 180.23 98.31 180.23 98.31 163.85 81.92 163.85 81.92 147.46 98.31 147.46 98.31 131.08 180.23 131.08 180.23 114.69 196.62 114.69 196.62 98.31 213 98.31 213 81.92 196.62 81.92 196.62 65.54 147.46 65.54 147.46 49.15 163.85 49.15 163.85 32.77 180.23 32.77 180.23 16.39 196.62 16.39 196.62 0 114.69 0 114.69 16.39 98.31 16.39 98.31 32.77 81.92 32.77 81.92 49.15 81.92 65.54 81.92 81.92 81.92 98.31 81.92 114.69 65.54 114.69 65.54 131.08 49.15 131.08 49.15 147.46 32.77 147.46 32.77 163.85 32.77 180.23 16.39 180.23 16.39 196.62 16.39 213 16.39 229.38 16.39 245.77 16.39 262.15 16.39 278.54 16.39 294.92 0 294.92 0 311.31 0 327.69 16.39 327.69 16.39 344.08 49.15 344.08 49.15 360.46 32.77 360.46 32.77 376.85 32.77 393.23 81.92 393.23 81.92 409.62 131.08 409.62 131.08 426 180.23 426 180.23 409.62 245.77 409.62 245.77 393.23 245.77 376.85 245.77 360.46 245.77 344.08 245.77 327.69 229.38 327.69" style="fill:#fff"/></svg>